# xmcd
# 
# Track frame offsets:
#     150
#     18460
#     38422
#     58560
#     85335
#     108072
#     136735
#     158897
#     181297
#     196710
#     224885
#     240785
#     264910
#     283185
#     306160
#     331172
#     342060
# 
# Disc length: 4737
# 
# Revision: 0
# Processed by: cddbd v1.5.2PL0 Copyright (c) Steve Scherf et al.
# Submitted via: fre:ac v1.0.31
# 
DISCID=de127f11
DTITLE=Luciano Pavarotti - Pavarotti and Friends Together For The Children Of Bosnia
DYEAR=1996
DGENRE=
TTITLE0=Zucchero - Per colpa di chi?
TTITLE1=Luciano Pavarotti - Jovanotti - Serenata Rap - Mattinata
TTITLE2=Nenad Bach - Can we go higher?
TTITLE3=Luciano Pavarotti - Simon Le Bon  - Ordinary world
TTITLE4=Gam Gam - Clap clap
TTITLE5=Brian Eno, Bono and The Edge Luciano Pavarotti - Miss Sarajavo
TTITLE6=Luciano Pavarotti - Zucchero - Cosi celeste
TTITLE7=Dolores O'Riordan - Simon Le Bon - Linger
TTITLE8=Luciano Pavarotti - Meat Loaf - Come back to sorrento
TTITLE9=Jovanotti - Penso positivo
TTITLE10=Luciano Pavarotti - Michael Bolton - Vesti la giubba
TTITLE11=Meat Loaf - Heaven can wait
TTITLE12=Luciano Pavarotti - Dolores O'Riordan - Ave Maria
TTITLE13=Brian Eno, Bono and The Edge - One
TTITLE14=The Chieftains - The long black veil
TTITLE15=Luciano Pavarotti - The Chieftains - Funiculi, Funicula
TTITLE16=Ensemble - Nessun dorma
EXTD=
EXTT0=Zucchero\n
EXTT1=Luciano Pavarotti - Jovanotti
EXTT2=Nened Back
EXTT3=Luciano Pavarotti - Simon Le Bon
EXTT4=Gam Gam
EXTT5=Brian Eno, Bono and The Edge - Luciano Pavarotti
EXTT6=Luciano Pavarotti - Zucchero
EXTT7=Delores O'Riordan - Simon Le Bon
EXTT8=Lucian Pavarotti - Meat Loaf
EXTT9=Jovanotti
EXTT10=Lucian Pavarotti - Michael Bolton
EXTT11=Meat Loaf
EXTT12=Luciano Pavarotti - Dolores O'Riordan
EXTT13=Brian Eno, Bono and The Edge
EXTT14=The Cheiftans
EXTT15=Luciano Pavarotti - The Chieftans
EXTT16=Ensemble
PLAYORDER=
